<svg xmlns="http://www.w3.org/2000/svg" width="816" height="816" fill="none" viewBox="0 0 816 816"><g filter="url(#filter0_d)"><mask id="mask0" width="640" height="640" x="88" y="63" mask-type="alpha" maskUnits="userSpaceOnUse"><path fill="url(#paint0_linear)" fill-rule="evenodd" d="M88 87C88 73.7452 98.7452 63 112 63H384C397.255 63 408 73.7452 408 87V223H488C532.183 223 568 258.817 568 303V383C656.366 383 728 454.634 728 543C728 631.366 656.366 703 568 703C479.634 703 408 631.366 408 543H328C283.817 543 248 507.183 248 463V383H112C98.7452 383 88 372.255 88 359V87Z" clip-rule="evenodd"/></mask><g mask="url(#mask0)"><rect width="320" height="320" x="88" y="63" fill="url(#paint1_linear)" rx="24"/><g filter="url(#filter1_d)"><rect width="320" height="320" x="248" y="223" fill="url(#paint2_linear)" rx="80"/></g><g filter="url(#filter2_d)"><rect width="320" height="320" x="408" y="383" fill="url(#paint3_linear)" rx="160"/></g></g></g><defs><filter id="filter0_d" width="815" height="815" x=".5" y=".5" color-interpolation-filters="sRGB" filterUnits="userSpaceOnUse"><feFlood flood-opacity="0" result="BackgroundImageFix"/><feColorMatrix in="SourceAlpha" type="matrix" values="0 0 0 0 0 0 0 0 0 0 0 0 0 0 0 0 0 0 127 0"/><feOffset dy="25"/><feGaussianBlur stdDeviation="43.75"/><feColorMatrix type="matrix" values="0 0 0 0 0 0 0 0 0 0 0 0 0 0 0 0 0 0 0.6 0"/><feBlend in2="BackgroundImageFix" mode="normal" result="effect1_dropShadow"/><feBlend in="SourceGraphic" in2="effect1_dropShadow" mode="normal" result="shape"/></filter><filter id="filter1_d" width="420" height="420" x="201" y="188" color-interpolation-filters="sRGB" filterUnits="userSpaceOnUse"><feFlood flood-opacity="0" result="BackgroundImageFix"/><feColorMatrix in="SourceAlpha" type="matrix" values="0 0 0 0 0 0 0 0 0 0 0 0 0 0 0 0 0 0 127 0"/><feOffset dx="3" dy="15"/><feGaussianBlur stdDeviation="25"/><feColorMatrix type="matrix" values="0 0 0 0 0 0 0 0 0 0 0 0 0 0 0 0 0 0 0.6 0"/><feBlend in2="BackgroundImageFix" mode="normal" result="effect1_dropShadow"/><feBlend in="SourceGraphic" in2="effect1_dropShadow" mode="normal" result="shape"/></filter><filter id="filter2_d" width="420" height="420" x="361" y="348" color-interpolation-filters="sRGB" filterUnits="userSpaceOnUse"><feFlood flood-opacity="0" result="BackgroundImageFix"/><feColorMatrix in="SourceAlpha" type="matrix" values="0 0 0 0 0 0 0 0 0 0 0 0 0 0 0 0 0 0 127 0"/><feOffset dx="3" dy="15"/><feGaussianBlur stdDeviation="25"/><feColorMatrix type="matrix" values="0 0 0 0 0 0 0 0 0 0 0 0 0 0 0 0 0 0 0.6 0"/><feBlend in2="BackgroundImageFix" mode="normal" result="effect1_dropShadow"/><feBlend in="SourceGraphic" in2="effect1_dropShadow" mode="normal" result="shape"/></filter><linearGradient id="paint0_linear" x1="408" x2="728" y1="383" y2="703" gradientUnits="userSpaceOnUse"><stop stop-color="#185D37"/><stop offset="1" stop-color="#0B3D1E"/></linearGradient><linearGradient id="paint1_linear" x1="88" x2="408" y1="63" y2="383" gradientUnits="userSpaceOnUse"><stop stop-color="#33C4B3"/><stop offset="1" stop-color="#1EA990"/></linearGradient><linearGradient id="paint2_linear" x1="248" x2="568" y1="223" y2="543" gradientUnits="userSpaceOnUse"><stop stop-color="#21A394"/><stop offset="1" stop-color="#11836E"/></linearGradient><linearGradient id="paint3_linear" x1="408" x2="728" y1="383" y2="703" gradientUnits="userSpaceOnUse"><stop stop-color="#185D4F"/><stop offset="1" stop-color="#0B3D2F"/></linearGradient></defs></svg>